<svg xmlns="http://www.w3.org/2000/svg" viewBox="0 0 1000 200"><rect x="97.47" y="46.89" width="3.28" height="12.5"/><rect x="104.46" y="54.98" width="12.5" height="3.28" transform="translate(7.51 126) rotate(-61)"/><rect x="112" y="62.52" width="12.5" height="3.28" transform="translate(-16.03 72.41) rotate(-32)"/><rect x="85.84" y="50.37" width="3.28" height="12.5" transform="translate(-16.48 49.51) rotate(-29)"/><rect x="78.3" y="57.91" width="3.28" height="12.5" transform="translate(-16.83 97.95) rotate(-58)"/><path d="M99.15,22.12A50.74,50.74,0,0,0,54.24,96.47h0v0a52.36,52.36,0,0,0,4.43,7l35.1,55.15L99.1,140.9l5.32,17.72,34.63-54.42a50.74,50.74,0,0,0-39.9-82.08ZM99.1,139.83,88.88,122.55S75.36,99.63,70.81,92c-.52-.86-1.57-2.59-2.06-3.47a32.36,32.36,0,0,1-3.81-15.7,34.21,34.21,0,0,1,68.42,0,31.11,31.11,0,0,1-3.28,14.63c-.73,1.38-2.37,4-3.17,5.35-4.45,7.41-17.6,29.74-17.6,29.74Z"/><polygon points="105.59 158.79 105.66 158.83 105.66 158.83 173.22 117.42 173.22 92.93 99.22 140.29 25 92.96 25 117.41 93.58 158.83 93.58 158.83 93.69 158.79 105.59 158.79"/><rect x="48.37" y="159.14" width="101.48" height="19.25"/><path d="M249.13,173.55V22.91h21V94l34.59-71h19.52L294.51,89.3l34.59,84.25H308.64l-28.82-70.67-9.67,17.48v53.19Z"/><path d="M352.35,173.55V22.91h14.32L409.44,123V22.91h17.49V173.55H413.54L370.2,70.71V173.55Z"/><path d="M500.2,175.23q-15.26,0-24.36-5.95a32.55,32.55,0,0,1-13-17q-3.92-11.07-3.91-25.95V69.22q0-14.88,4-25.57a31.85,31.85,0,0,1,13-16.37q9-5.67,24.27-5.67t24.18,5.76A32.52,32.52,0,0,1,537.3,43.74q4,10.6,4,25.48V126.5q0,14.7-4,25.67a33.84,33.84,0,0,1-12.92,17Q515.45,175.23,500.2,175.23Zm0-16.55q8.37,0,12.65-3.45a17,17,0,0,0,5.76-9.67A63.45,63.45,0,0,0,520.1,131v-66a61,61,0,0,0-1.49-14.41,16,16,0,0,0-5.76-9.3Q508.56,38,500.2,38t-12.74,3.26a15.87,15.87,0,0,0-5.86,9.3,61.06,61.06,0,0,0-1.48,14.41v66a63.49,63.49,0,0,0,1.48,14.6,16.79,16.79,0,0,0,5.86,9.67Q491.83,158.68,500.2,158.68Z"/><path d="M573.1,173.55V22.91h21V158.49h38.5v15.06Z"/><path d="M694.73,175.23q-16,0-24.83-6.7a34.45,34.45,0,0,1-12.27-18,86.71,86.71,0,0,1-3.44-25.29V72q0-15.26,3.44-26.6A32.12,32.12,0,0,1,669.9,27.84q8.83-6.22,24.83-6.23,14.13,0,22.41,5.21A29,29,0,0,1,729,41.69q3.63,9.68,3.63,23.25v11.9h-19.9V66.24a115.07,115.07,0,0,0-.84-14.78q-.82-6.42-4.55-10T694.92,38c-5.95,0-10.3,1.28-13,3.82s-4.5,6.13-5.3,10.78a96,96,0,0,0-1.21,16.28v59.7q0,11.34,1.86,17.94t6.14,9.4q4.27,2.79,11.53,2.79,8.55,0,12.27-3.82t4.65-10.5a115.2,115.2,0,0,0,.93-15.63V117.57h19.9v11.16A80,80,0,0,1,729.32,153a31,31,0,0,1-11.53,16.37Q709.62,175.22,694.73,175.23Z"/><path d="M802.41,175.23q-15.24,0-24.36-5.95a32.6,32.6,0,0,1-13-17q-3.9-11.07-3.9-25.95V69.22q0-14.88,4-25.57a31.84,31.84,0,0,1,13-16.37q9-5.67,24.27-5.67t24.18,5.76a32.59,32.59,0,0,1,12.93,16.37q4,10.6,4,25.48V126.5q0,14.7-4,25.67a33.91,33.91,0,0,1-12.93,17Q817.67,175.23,802.41,175.23Zm0-16.55q8.37,0,12.65-3.45a17,17,0,0,0,5.77-9.67,63.49,63.49,0,0,0,1.48-14.6v-66a61.06,61.06,0,0,0-1.48-14.41,16.1,16.1,0,0,0-5.77-9.3Q810.79,38,802.41,38t-12.74,3.26a15.85,15.85,0,0,0-5.85,9.3,60.5,60.5,0,0,0-1.49,14.41v66a62.9,62.9,0,0,0,1.49,14.6,16.77,16.77,0,0,0,5.85,9.67Q794.05,158.68,802.41,158.68Z"/><path d="M874.94,173.55l2.79-150.64h20.65L925,145.1,951.75,22.91h20.46L975,173.55H958.08L956.4,64.2,930.92,173.55H919L893.73,64.2l-1.68,109.35Z"/></svg>