<svg xmlns="http://www.w3.org/2000/svg" width="1000" height="1000" viewBox="0 0 1000 1000"><defs><style>.a{fill:#fff;}</style></defs><rect class="a" x="489.5629" y="160.6507" width="20.8741" height="79.5825"/><rect class="a" x="534.0739" y="212.1644" width="79.5825" height="20.8741" transform="translate(100.9582 616.5959) rotate(-61)"/><rect class="a" x="582.0863" y="260.1768" width="79.5825" height="20.8741" transform="translate(-48.908 370.6652) rotate(-32)"/><rect class="a" x="415.4741" y="182.8102" width="20.8741" height="79.5825" transform="translate(-54.5185 234.3956) rotate(-29)"/><rect class="a" x="367.4617" y="230.8226" width="20.8741" height="79.5825" transform="translate(-51.8506 447.6867) rotate(-58)"/><path class="a" d="M500.2584,2.8334c-178.4765,0-323.16,144.6836-323.16,323.16a321.6264,321.6264,0,0,0,37.1283,150.44l-.0163.0128.1136.1788a323.6281,323.6281,0,0,0,28.2125,44.3348L466.0823,872.26l33.8668-112.89,33.8674,112.89L754.3728,525.6574a321.7761,321.7761,0,0,0,69.0457-199.6639C823.4185,147.517,678.735,2.8334,500.2584,2.8334Zm-.3093,749.7155L434.8311,642.523S348.7455,496.544,319.7432,448.0672c-3.297-5.5108-9.971-16.4883-13.0833-22.1055-16.3428-29.4963-24.3037-63.9206-24.3037-99.9682,0-120.3442,97.5584-217.9022,217.9022-217.9022s217.9023,97.558,217.9023,217.9022c0,33.3451-6.2326,65.5711-20.9053,93.182-4.6454,8.7415-15.0608,25.5954-20.1678,34.0754C648.7,500.3885,564.9833,642.6652,564.9833,642.6652Z"/><polygon class="a" points="541.751 873.565 972 609.839 972 453.88 499.677 755.467 28 454.033 28 609.785 464.778 873.565 541.751 873.565"/><rect class="a" x="176.8399" y="875.5312" width="646.3202" height="122.6354"/></svg>