<svg xmlns="http://www.w3.org/2000/svg" width="1000" height="1000" viewBox="0 0 1000 1000"><defs><style>.a{fill:#035aa7;}</style></defs><rect class="a" x="489.563" y="160.6506" width="20.874" height="79.5825"/><rect class="a" x="534.0739" y="212.1644" width="79.5825" height="20.8741" transform="translate(100.9571 616.5946) rotate(-60.9998)"/><rect class="a" x="582.0862" y="260.1768" width="79.5826" height="20.8741" transform="translate(-48.9081 370.6643) rotate(-31.9999)"/><rect class="a" x="415.474" y="182.8102" width="20.8742" height="79.5825" transform="translate(-54.5185 234.3964) rotate(-29.0001)"/><rect class="a" x="367.4617" y="230.8226" width="20.874" height="79.5825" transform="translate(-51.8507 447.6865) rotate(-58)"/><path class="a" d="M682.3647,638.8173l72.0081-113.16a321.7756,321.7756,0,0,0,69.0457-199.6638c0-178.4765-144.6836-323.16-323.16-323.16s-323.16,144.6836-323.16,323.16a321.6256,321.6256,0,0,0,37.1282,150.4394l-.0162.0129.1136.1788a323.6179,323.6179,0,0,0,28.2124,44.3348l75.2629,118.2752L28,454.033V609.7851l436.7776,263.78H541.751L972,609.839V453.88ZM282.3562,325.9935c0-120.3442,97.5584-217.9023,217.9021-217.9023s217.9023,97.5581,217.9023,217.9023c0,33.3451-6.2324,65.5711-20.9052,93.182-4.6453,8.7414-15.0608,25.5954-20.1678,34.0754C648.7,500.3885,564.9834,642.6652,564.9834,642.6652L499.9492,752.5489l-65.1181-110.026S348.7456,496.544,319.7432,448.0671c-3.2969-5.5108-9.971-16.4882-13.0833-22.1054C290.3171,396.4654,282.3562,362.0411,282.3562,325.9935Z"/><rect class="a" x="176.8398" y="875.5312" width="646.3203" height="122.6354"/></svg>