<svg xmlns="http://www.w3.org/2000/svg" xmlns:xlink="http://www.w3.org/1999/xlink" viewBox="0 0 500 500"><defs><style>.a,.e,.n,.o{fill:none;}.b{opacity:0.3;}.c,.d{fill:#adcae0;}.d{opacity:0.8;}.d,.j{isolation:isolate;}.e,.g,.j,.k,.m,.o{stroke:#263238;}.e,.g,.j,.k,.m,.n,.o{stroke-linecap:round;stroke-linejoin:round;}.f,.k{fill:#263238;}.g,.h{fill:#fff;}.i{clip-path:url(#a);}.j{opacity:0.24;}.l{clip-path:url(#b);}.m{fill:#035aa7;}.n{stroke:#fff;}</style><clipPath id="a"><path class="a" d="M279.76,335.35a48.91,48.91,0,0,0,0,25.31h52.85s-5.55-16.05,0-25.31Z"/></clipPath><clipPath id="b"><path class="a" d="M280.59,390.76a48.91,48.91,0,0,0,0,25.31h52s-5.55-16.05,0-25.31Z"/></clipPath></defs><g class="b"><path class="c" d="M452.67,86.5s-30.32-58.93-97.28-67.66-113.7,33.83-163,55.66c-25.8,11.43-55.27,7-82.67,12.52C22.15,104.71-10.84,215.55,25.64,278.58c31.58,54.57,87.17,82.94,171.82,89.49s144,14.19,219.83-39.29S488.05,164,452.67,86.5Z"/><path class="d" d="M452.67,86.5s-30.32-58.93-97.28-67.66-113.7,33.83-163,55.66c-25.8,11.43-55.27,7-82.67,12.52C22.15,104.71-10.84,215.55,25.64,278.58c31.58,54.57,87.17,82.94,171.82,89.49s144,14.19,219.83-39.29S488.05,164,452.67,86.5Z"/></g><path class="e" d="M381.69,136.19l-13,54.34s4.49,6.29,6.29,8.08,5.84,1.8,7.19,1.8,52.09.9,52.09.9l10-66.47"/><line class="e" x1="392.57" y1="125.94" x2="388.43" y2="125.86"/><polyline class="e" points="371.36 191.43 426.16 191.25 437.83 126.76 397.64 126.03"/><polyline class="e" points="374.5 191.88 379 196.82 431.54 198.16 441.05 140.55 436.93 134.84"/><path class="f" d="M383.69,194.73h7.6s-1.27,6-1.9,11.72-.95,13-.95,13L384,211.2l-5.39,7Z"/><path class="e" d="M63.18,206.63l32.38-13s1.58-4.56,1.84-6.13-1.2-3.62-1.69-4.31S77.3,156.29,77.3,156.29l-37.46,19"/><line class="e" x1="54.02" y1="204.81" x2="55.48" y2="206.94"/><polyline class="e" points="95.05 191.89 75.11 164.06 38.05 181.47 52.23 202.19"/><polyline class="e" points="94.14 190.13 95.03 186.05 76.69 158.81 43.91 174.83 42.49 179"/><path class="f" d="M92.27,184.41l-2.75-3.87S93,179,96.18,177.26s7-4.22,7-4.22l-2.59,5.24,5.5.22Z"/><polyline class="e" points="62.4 257.51 59.83 258.79 82.53 302.21 120.53 261.75 166.91 247.44 143.72 210.43 141.68 210.59"/><path class="e" d="M96.35,220.79l20.23,36.52s-8.88-2-10.86,6.42S94.86,283,90.92,287.91A73.23,73.23,0,0,1,83,296.3L61.31,254.85s10.36-8.39,15.3-20.23S89.44,219.31,96.35,220.79Z"/><path class="e" d="M116.58,257.31s2.47-7.4,8.39-7.9,16.78,1.48,26.15-1.48S162,244,162,244l-22.7-37s-5.43,4.44-19.24,4.44-22.21,2.47-23.69,9.38Z"/><path class="e" d="M118.06,261.26a30.29,30.29,0,0,0-6.91,4.44c-3.45,3-6.41,8.39-12.34,15.79"/><path class="e" d="M122,258.29s3.45-4.44,8.88-4.93,14.8-.49,30.1-6.42"/><path class="e" d="M68.71,260.27A169.7,169.7,0,0,0,80.55,245c6.91-9.87,11.84-13.82,17.27-13.82"/><path class="e" d="M72.66,266.68a169.7,169.7,0,0,0,11.84-15.3c6.91-9.87,11.84-13.82,17.27-13.82"/><path class="e" d="M76.61,273.1a169.7,169.7,0,0,0,11.84-15.3c6.91-9.87,11.84-13.82,17.27-13.82"/><path class="e" d="M80.56,279.51a169.7,169.7,0,0,0,11.84-15.3c6.91-9.87,11.84-13.82,17.27-13.82"/><path class="e" d="M104.74,228.19s2-5.43,9.38-5.43,23.75-.65,25.66-6.42"/><path class="e" d="M109.18,235.6s3.45-4.44,12.83-4.44,17.76-2,23.19-7.4"/><path class="e" d="M112.14,243a12.38,12.38,0,0,1,11.35-6.42c8.39,0,18.75-1.48,24.67-5.92"/><path class="e" d="M115.59,248.43s1.48-4.93,9.87-5.43,18.75-2.47,26.65-5.92"/><polyline class="e" points="331.08 35.74 329.79 34.25 304.82 56.88 338.33 75.15 355.88 103.53 376.49 81.69 376.03 80.36"/><path class="e" d="M361.39,52,340.6,71.75s-.23-6.25-6.15-6.11S319.77,61.75,315.8,60a49.58,49.58,0,0,1-6.95-3.8l23.82-21.63s7.38,5.44,16.11,6.67S361.18,47.11,361.39,52Z"/><path class="e" d="M340.6,71.75s5.35.36,6.71,4.21,1.92,11.42,5.51,17.14,4.51,6.54,4.51,6.54L378,78.13s-3.9-2.84-6.29-12S366.24,51.74,361.39,52Z"/><path class="e" d="M338.23,73.42a20.75,20.75,0,0,0-4.15-3.83c-2.57-1.79-6.69-2.82-12.64-5.47"/><path class="e" d="M340.88,75.54a9.66,9.66,0,0,1,4.82,5.06,62.68,62.68,0,0,0,9.48,18.92"/><path class="e" d="M330.34,40.42a117.25,117.25,0,0,0,12.23,5.23c7.76,2.89,11.24,5.49,12.18,9.1"/><path class="e" d="M326.75,44.16A117.25,117.25,0,0,0,339,49.39c7.76,2.89,11.24,5.49,12.18,9.1"/><path class="e" d="M323.17,47.89a117.25,117.25,0,0,0,12.23,5.23c7.76,2.89,11.24,5.49,12.18,9.1"/><path class="e" d="M319.59,51.63a117.25,117.25,0,0,0,12.23,5.23c7.76,2.89,11.24,5.49,12.18,9.1"/><path class="e" d="M357.92,58.83s3.95.37,5.24,5.3,4.55,15.69,8.71,16"/><path class="e" d="M353.76,63.07s3.55,1.53,5.18,7.77,4.39,11.48,8.94,14.15"/><path class="e" d="M349.35,66.32a8.51,8.51,0,0,1,6.23,6.44c1.45,5.58,4.23,12.22,8.21,15.39"/><path class="e" d="M346.34,69.56s3.54.13,5.32,5.63a57.11,57.11,0,0,0,8.56,16.7"/><polyline class="e" points="150.6 84.83 129.87 117.33 134.35 118.45 155.09 87.64 188.14 106.69 192.63 102.2 156.21 83.15"/><polyline class="e" points="155.09 87.64 164.05 141.43 191.51 157.11 187.58 109.49"/><polyline class="e" points="191.51 157.11 195.99 148.71 192.63 102.2"/><polyline class="e" points="164.05 141.43 145.56 166.64 136.03 122.94"/><polyline class="e" points="129.87 117.33 140.52 166.08 145.56 166.64"/><line class="e" x1="156.21" y1="106.13" x2="141.64" y2="126.3"/><line class="e" x1="157.33" y1="115.65" x2="142.76" y2="135.82"/><line class="e" x1="158.45" y1="125.18" x2="143.88" y2="145.35"/><line class="e" x1="159.57" y1="134.7" x2="145" y2="154.87"/><line class="e" x1="162.37" y1="106.69" x2="181.98" y2="117.89"/><line class="e" x1="162.37" y1="115.65" x2="181.98" y2="126.86"/><line class="e" x1="165.17" y1="125.18" x2="184.78" y2="136.38"/><line class="e" x1="165.73" y1="134.7" x2="185.34" y2="145.91"/><polyline class="e" points="434.48 320.76 451.84 286.34 447.26 285.67 429.74 318.42 394.93 302.8 390.92 307.71 429.08 322.99"/><polyline class="e" points="429.74 318.42 415.4 265.81 386.51 252.96 395.21 299.95"/><polyline class="e" points="386.51 252.96 382.9 261.78 390.92 307.71"/><polyline class="e" points="415.4 265.81 431.26 238.86 445.14 281.38"/><polyline class="e" points="451.84 286.34 436.33 238.91 431.26 238.86"/><line class="e" x1="426.76" y1="300.14" x2="439.23" y2="278.6"/><line class="e" x1="424.69" y1="290.77" x2="437.15" y2="269.24"/><line class="e" x1="422.62" y1="281.41" x2="435.08" y2="259.87"/><line class="e" x1="420.54" y1="272.04" x2="433" y2="250.51"/><line class="e" x1="420.57" y1="300.2" x2="399.94" y2="291.03"/><line class="e" x1="419.67" y1="291.28" x2="399.03" y2="282.11"/><line class="e" x1="415.93" y1="282.09" x2="395.29" y2="272.91"/><line class="e" x1="414.41" y1="272.66" x2="393.77" y2="263.49"/><rect class="g" x="175.54" y="334.43" width="131.15" height="26.85"/><line class="e" x1="176.89" y1="341.39" x2="199.92" y2="341.39"/><line class="e" x1="207.59" y1="348.72" x2="210.73" y2="348.72"/><line class="e" x1="176.54" y1="348.72" x2="202.36" y2="348.72"/><line class="e" x1="177.08" y1="356.3" x2="187.71" y2="356.3"/><path class="h" d="M279.76,335.35a48.91,48.91,0,0,0,0,25.31h52.85s-5.55-16.05,0-25.31Z"/><g class="i"><path class="j" d="M279.76,335.35a48.91,48.91,0,0,0,0,25.31h52.85s-5.55-16.05,0-25.31Z"/></g><path class="e" d="M279.76,335.35a48.91,48.91,0,0,0,0,25.31h52.85s-5.55-16.05,0-25.31Z"/><path class="k" d="M177.08,356.3V338a1.7,1.7,0,0,1,1.7-1.7H334.72A1.28,1.28,0,0,0,336,335h0a1.28,1.28,0,0,0-1.28-1.28H174.56a1.7,1.7,0,0,0-1.7,1.7v23.47a2.75,2.75,0,0,0,2.75,2.75H334.72a1.28,1.28,0,0,0,1.28-1.28h0a1.28,1.28,0,0,0-1.28-1.28H179.83A2.78,2.78,0,0,1,177.08,356.3Z"/><rect class="g" x="175.54" y="389.84" width="131.15" height="26.85"/><line class="e" x1="177.73" y1="395.01" x2="200.75" y2="395.01"/><line class="e" x1="208.42" y1="402.34" x2="211.56" y2="402.34"/><line class="e" x1="177.38" y1="402.34" x2="203.19" y2="402.34"/><line class="e" x1="177.91" y1="409.93" x2="188.54" y2="409.93"/><path class="h" d="M280.59,390.76a48.91,48.91,0,0,0,0,25.31h52s-5.55-16.05,0-25.31Z"/><g class="l"><path class="j" d="M280.59,390.76a48.91,48.91,0,0,0,0,25.31h52s-5.55-16.05,0-25.31Z"/></g><path class="e" d="M280.59,390.76a48.91,48.91,0,0,0,0,25.31h52s-5.55-16.05,0-25.31Z"/><path class="k" d="M177.08,411.72V393.39a1.7,1.7,0,0,1,1.7-1.7H334.72a1.28,1.28,0,0,0,1.28-1.28h0a1.28,1.28,0,0,0-1.28-1.28H174.56a1.7,1.7,0,0,0-1.7,1.7V414.3a2.75,2.75,0,0,0,2.75,2.75H334.72a1.28,1.28,0,0,0,1.28-1.28h0a1.28,1.28,0,0,0-1.28-1.28H179.83A2.78,2.78,0,0,1,177.08,411.72Z"/><path class="g" d="M177.21,442.26c.92-3.08,4.29-15.83.12-24H328.26v24Z"/><line class="e" x1="267.32" y1="423.58" x2="244.29" y2="423.58"/><line class="e" x1="236.62" y1="430.9" x2="233.48" y2="430.9"/><line class="e" x1="267.67" y1="430.9" x2="241.85" y2="430.9"/><line class="e" x1="267.13" y1="438.49" x2="256.5" y2="438.49"/><path class="k" d="M268.17,439.84V421.51a1.7,1.7,0,0,0-1.7-1.7H174.15a1.28,1.28,0,0,1-1.28-1.28h0a1.28,1.28,0,0,1,1.28-1.28H334.31A1.7,1.7,0,0,1,336,419v23.47a2.75,2.75,0,0,1-2.75,2.75H174.15a1.28,1.28,0,0,1-1.28-1.28h0a1.28,1.28,0,0,1,1.28-1.28h91.27A2.78,2.78,0,0,0,268.17,439.84Z"/><path class="g" d="M177.21,470.38c.92-3.08,4.29-15.83.12-24H328.26v24Z"/><line class="e" x1="267.25" y1="451.87" x2="244.22" y2="451.87"/><line class="e" x1="236.55" y1="459.2" x2="233.41" y2="459.2"/><line class="e" x1="267.6" y1="459.2" x2="241.78" y2="459.2"/><line class="e" x1="267.06" y1="466.79" x2="256.43" y2="466.79"/><path class="m" d="M268.17,468V449.63a1.7,1.7,0,0,0-1.7-1.7H174.15a1.28,1.28,0,0,1-1.28-1.28h0a1.28,1.28,0,0,1,1.28-1.28H334.31a1.7,1.7,0,0,1,1.7,1.7v23.47a2.75,2.75,0,0,1-2.75,2.75H174.15a1.28,1.28,0,0,1-1.28-1.28h0a1.28,1.28,0,0,1,1.28-1.28h91.27A2.78,2.78,0,0,0,268.17,468Z"/><path class="g" d="M177.21,386c.92-3.08,4.29-15.83.12-24H328.26v24Z"/><line class="e" x1="267.65" y1="367.41" x2="244.62" y2="367.41"/><line class="e" x1="236.95" y1="374.73" x2="233.81" y2="374.73"/><line class="e" x1="268" y1="374.73" x2="242.18" y2="374.73"/><line class="e" x1="267.46" y1="382.32" x2="256.83" y2="382.32"/><path class="m" d="M268.17,383.6V365.27a1.7,1.7,0,0,0-1.7-1.7H174.15a1.28,1.28,0,0,1-1.28-1.28h0a1.28,1.28,0,0,1,1.28-1.28H334.31a1.7,1.7,0,0,1,1.7,1.7v23.47a2.75,2.75,0,0,1-2.75,2.75H174.15a1.28,1.28,0,0,1-1.28-1.28h0a1.28,1.28,0,0,1,1.28-1.28h91.27A2.79,2.79,0,0,0,268.17,383.6Z"/><path class="k" d="M232.62,274.37s-12.82.41-31.43-4.14-33.91-1.24-36.8,16.54,44.66,36,77.74,42.59,66.17,9.51,82.29,2.48,15.71-32.26,9.51-43.83-26.88-13.23-37.63-11.58S232.62,274.37,232.62,274.37Z"/><path class="k" d="M316.16,196.62q-2.67-17.88-5.32-35.75c-1.65-11.07-2.35-22.91-5.23-33.72-3.72-16.13-9.3-24.81-26.05-27.91s-35.36,14.89-35.36,23,5.75,26.27-3.1,54.9c-3,9.79,8.68,11.18,22.84,6.85Z"/><path class="m" d="M271.18,171.81s-20.47,2.79-30.08,5.27-13.08,6-16.49,12.52S216,220.54,211,230.77s-14,13-15.53,23.84,7.13,14.58,13.65,15.82A116.82,116.82,0,0,0,223.74,272s10.55,24.81,31,26.67,35.67-12.41,45-17.68,9.92-17.37,10.23-31.33,8.55-45.34,6.38-54-5.42-10.11-19.51-17.34C290.8,175.21,279.87,171.19,271.18,171.81Z"/><path class="g" d="M206.83,237.18c-4.73,5.67-10.15,9.25-11.32,17.44a15.45,15.45,0,0,0,.05,4.92c1.26,1.91,5.15,6.44,12.73,4.27,9.48-2.71,8.46-15.91,2.71-24A5.86,5.86,0,0,0,206.83,237.18Z"/><path class="g" d="M269.74,213.7c8.67-4,13.37-10.84,17.34-23.84a124,124,0,0,0,3.53-14.31c-5.89-2.26-13.23-4.18-19.43-3.74,0,0-8.84,1.21-17.63,2.74-.73,4.56-2.49,17.56-.44,27.23C255.65,213.7,261.07,217.67,269.74,213.7Z"/><path class="e" d="M228.69,259s6.2-15.51,6.2-19.85-2.79-8.68-5-14.27S233.34,210,233.34,210s3.52-27,6.77-31.66"/><path class="g" d="M199.23,228.57l4.65-5a50.12,50.12,0,0,0,9.61,4c12.57,4.19,18.3,6.82,18.92,14.27,0,0,8.37-5.27,16.75-4.34s15.82,4.34,18.3,4.65l2.48.31.62,4.34-4.65,24.5-36.29-3.72-24.81-21.71Z"/><polygon class="k" points="197.68 227.64 227.14 252.76 230.24 247.8 272.42 246.87 269.94 274.16 229.93 272.3 227.14 274.16 205.43 258.03 197.68 227.64"/><path class="g" d="M300.34,219.26l-.62,35.36s-18.3,10.23-28.53,13-16.44,2.79-17.37,2.79-5-6.51-7.13-8.68-3.92-2.21-7.89-4.19c-5.52-2.76-7.92-3.25-7.61-2s.62,2.48,3.41,4,4.65,2.79,4.65,2.79l.62,1.24s-6.82-.93-9.61-1.55-9.92-5.58-9.92-5.58-3-.19-.86,3.54,4.28,3.91,4.28,3.91a11.26,11.26,0,0,0,3.1,5.89,46.71,46.71,0,0,0,4.34,3.41s-5.89-1.55-5.27,0,4.34,2.17,9,4.34,15.2,2.48,21.09,3.41a148.24,148.24,0,0,0,32.26.62c12.41-1.24,31-9.61,34.43-12.41s1.24-34.12.31-41.25-2.79-20.47-4-26.67-6.2-14.89-9.3-16.75S301,188.56,300.34,219.26Z"/><path class="g" d="M223.73,263.92s7.38,4.38,12.91,5.61"/><path class="g" d="M231.17,273.23a24.18,24.18,0,0,0,7.31,1.52"/><path class="g" d="M224.67,267.07a37.76,37.76,0,0,0,12.89,5.83"/><path class="m" d="M291.94,281.06c12.12-2.25,27.64-9.34,30.73-11.87,3.41-2.79,1.24-34.12.31-41.25s-2.79-20.47-4-26.67-6.2-14.89-9.3-16.75-8.68,4-9.3,34.74l-.62,35.36s-7.11,4-15,7.65C287.79,265.56,292.89,272.49,291.94,281.06Z"/><path class="g" d="M260.17,168.13s-2.77,16.08-3.05,26.07,7.21,20,17.75,7.21,8.87-33.83,8.87-33.83A29.34,29.34,0,0,1,260.17,168.13Z"/><path class="e" d="M261,175.06s.55,8.6-.28,13.31"/><path class="g" d="M198.51,251.33a5.33,5.33,0,0,0,.47,4.25c1.26,2,7.87,6,7.87,4.41s-3.31-3.78-3.46-4.88a9.62,9.62,0,0,0-1.1-2.68S199.93,249.44,198.51,251.33Z"/><path class="g" d="M195.34,242.13s-.31,4.6.48,6.75,9.08,7.88,11.21,6.78-4.43-6.79-6-8.57A55,55,0,0,0,195.34,242.13Z"/><path class="g" d="M195.36,236.53s-.63,4.56,0,6.77,8.5,8.5,10.7,7.56-3.93-7.08-5.35-9A53.73,53.73,0,0,0,195.36,236.53Z"/><path class="g" d="M199.14,231.34s-4.72-2.52-5.51.63,2.83,6.45,6.14,9.13,4.72,2.2,4.72-.31S199.14,231.34,199.14,231.34Z"/><path class="g" d="M198.71,329.78s-6.2,3.31-17.78,3.72-21.09-5.79-15.71-10.75,13.65-7.86,21.09-6.62,18.61,4.14,18.61,4.14Z"/><path class="g" d="M200.37,319.44c.56.07,1.15.1,1.75.12-3.79-.94-10.69-2.58-15.81-3.43-7.44-1.24-15.71,1.65-21.09,6.62-2.74,2.53-1.61,5.38,1.69,7.51a8,8,0,0,1,4.93-8.34C178.86,318.61,193.34,318.61,200.37,319.44Z"/><path class="k" d="M328.15,295.46s-12.41,18.61-24.81,26.05-69.06,8.27-80.64,8.27h-24V321.1s38-5.38,59.14-17.37,32.26-25.23,48.8-30.6,31,3.72,30.6,26.05"/><path class="n" d="M319.81,309.69c-6.69,6.32-18.29,14.58-36.17,17.89"/><path class="n" d="M327.94,299.59a31.11,31.11,0,0,1-3.49,5.1"/><path class="n" d="M265.29,301.45a36.34,36.34,0,0,1-19.85,7.44"/><path class="k" d="M191.39,277.8l-1.37-.13"/><path class="g" d="M307.88,331.43a115.89,115.89,0,0,1,19-5c8.68-1.24,15.71,0,18.2,5.38s.83,12-7.86,13.65-24.4-1.65-26.05-1.65a12.26,12.26,0,0,1-4.14-1.24Z"/><path class="g" d="M335.08,326.14c2.64,1,7.63,3.81,6.71,10.25-1.24,8.68-11.58,8.68-18.61,8.68a6,6,0,0,0-1.53.21c5.21.62,11.27,1,15.59.2,8.68-1.65,10.34-8.27,7.86-13.65C343.47,328.3,339.85,326.56,335.08,326.14Z"/><path class="k" d="M186.72,268.58s-14.06-2.48-23.16,4.55-7.86,14.47.83,25.23,31,29.77,79.4,38.46,63.27,5.79,63.27,5.79l.83-11.17S277.7,333.09,250,312.83c-27.08-19.8-39.15-32.89-58.6-35"/><path class="n" d="M186,278a34.92,34.92,0,0,0-4.44.53"/><path class="n" d="M301.89,331.23s-28.53-.62-60.79-25.43c-22.8-17.54-36.3-25.16-47.07-27.24"/><path class="g" d="M301.62,150.89c-7.62,4-8.65-4-8.62-8.91a.44.44,0,0,0,.15-.22c.56-2.23,0-13.38-6.41-17.83-5.65-3.93-13.15-7.32-20.14-7.33-4.93,0-9.3,3.14-12,7.13-3.15,4.75-2.88,10.26-3.13,15.75s-.78,11.53.32,17c1.46,7.32,8.3,22.7,16.6,22.7,7.53,0,20.9-11.27,25.49-17.91a7.93,7.93,0,0,0,2.82-1.62C298.45,158.21,301.86,155.77,301.62,150.89Z"/><path class="e" d="M268.43,146s-3.42,10.49-3.17,11.71,4.39,0,4.39,0"/><path class="e" d="M265.26,162.11s4.51,3.4,11.71-2"/><path class="e" d="M276.24,149.67s2.44,5.13,10.25,2.2"/><path class="e" d="M254,143.56s1.46,5.13,9.27,3.17"/><path class="e" d="M267.86,139.67s-2.77-10-11.88-4.89"/><circle class="o" cx="280.4" cy="150.41" r="9.76" transform="translate(34.52 352.38) rotate(-67.61)"/><circle class="e" cx="257.93" cy="146.01" r="9.76" transform="translate(72.49 377.22) rotate(-80.78)"/><line class="e" x1="289.66" y1="152.35" x2="297.71" y2="150.89"/><line class="e" x1="248.42" y1="143.56" x2="251.34" y2="141.37"/><path class="k" d="M258,120.31s8.64-5.29,11.7-.28,16.94,38.31,31.88,30.86-.11-32-14.6-39.77S260.27,110,258,120.31Z"/><path class="n" d="M266.6,116.6s-4.88-4.11-7.72-2.22-2.84,4.26-2.84,4.26"/><path class="n" d="M302.15,142.14a13.41,13.41,0,0,0,3.6,1.6"/><path class="n" d="M264.56,106.33s8.52-9.47,18,5.21c6.21,9.63,9.78,19.26,14.44,25.55"/><path class="n" d="M278.51,138.3s6.83-3.66,12.69,1.95"/><path class="e" d="M265.78,233.12s9.36,11.7,24.8,11.7"/></svg>