<svg xmlns="http://www.w3.org/2000/svg" viewBox="0 0 512 512"><defs><style>.a{fill:#035aa7;}</style></defs><path class="a" d="M489.51,296.69l-21.3-17.53a30,30,0,0,1,0-46.32l21.29-17.54a39.86,39.86,0,0,0,9.22-50.88L456.67,91.58A39.86,39.86,0,0,0,408,74.12L382.17,83.8a30,30,0,0,1-40.12-23.16l-4.54-27.22A39.87,39.87,0,0,0,298.06,0H213.94a39.87,39.87,0,0,0-39.45,33.42L170,60.64A30,30,0,0,1,129.84,83.8L104,74.12A39.87,39.87,0,0,0,55.33,91.58L13.27,164.42a39.87,39.87,0,0,0,9.22,50.88l21.3,17.54a30,30,0,0,1,0,46.32l-21.3,17.53a39.88,39.88,0,0,0-9.22,50.89l42.06,72.84A39.87,39.87,0,0,0,104,437.88l25.83-9.68A30,30,0,0,1,170,451.36l4.54,27.21A39.87,39.87,0,0,0,213.94,512h84.12a39.87,39.87,0,0,0,39.45-33.42l4.54-27.22a30,30,0,0,1,40.11-23.16L408,437.88a39.86,39.86,0,0,0,48.67-17.46l42.06-72.84a39.88,39.88,0,0,0-9.22-50.89ZM422,400.42l-25.83-9.68a70,70,0,0,0-93.61,54.05L298.06,472H213.94l-4.53-27.21a70,70,0,0,0-93.61-54.05L90,400.42,47.91,327.58,69.21,310a70,70,0,0,0,0-108.08l-21.3-17.54L90,111.58l25.83,9.68a70,70,0,0,0,93.61-54.05L213.94,40h84.12l4.53,27.21a70,70,0,0,0,93.61,54.05L422,111.58l42.07,72.83h0L442.79,202a70,70,0,0,0,0,108.08l21.3,17.54ZM256,157.33A98.67,98.67,0,1,0,354.67,256,98.78,98.78,0,0,0,256,157.33Zm0,157.34A58.67,58.67,0,1,1,314.67,256,58.74,58.74,0,0,1,256,314.67Z"/></svg>