<svg id="Layer_1" data-name="Layer 1" xmlns="http://www.w3.org/2000/svg" viewBox="0 0 512 512"><defs><style>.cls-1{fill:#035aa7;}</style></defs><path class="cls-1" d="M474.67,85.33A69.34,69.34,0,1,1,405.33,16,69.34,69.34,0,0,1,474.67,85.33Z"/><path class="cls-1" d="M405.33,170.67a85.34,85.34,0,1,1,85.34-85.34A85.42,85.42,0,0,1,405.33,170.67Zm0-138.67a53.34,53.34,0,1,0,53.34,53.33A53.4,53.4,0,0,0,405.33,32Z"/><path class="cls-1" d="M474.67,426.67a69.34,69.34,0,1,1-69.34-69.34A69.33,69.33,0,0,1,474.67,426.67Z"/><path class="cls-1" d="M405.33,512a85.34,85.34,0,1,1,85.34-85.33A85.42,85.42,0,0,1,405.33,512Zm0-138.67a53.34,53.34,0,1,0,53.34,53.34A53.4,53.4,0,0,0,405.33,373.33Z"/><path class="cls-1" d="M176,256a69.34,69.34,0,1,1-69.33-69.33A69.33,69.33,0,0,1,176,256Z"/><path class="cls-1" d="M106.67,341.33A85.33,85.33,0,1,1,192,256,85.42,85.42,0,0,1,106.67,341.33Zm0-138.66A53.33,53.33,0,1,0,160,256,53.39,53.39,0,0,0,106.67,202.67Z"/><path class="cls-1" d="M157,245.76a21.33,21.33,0,0,1-10.58-39.87L344.4,93a21.33,21.33,0,1,1,21.13,37.07L167.57,243A21.17,21.17,0,0,1,157,245.76Z"/><path class="cls-1" d="M355,421.76a21.18,21.18,0,0,1-10.54-2.8l-198-112.85A21.33,21.33,0,0,1,167.6,269l198,112.85A21.33,21.33,0,0,1,355,421.76Z"/></svg>