<svg xmlns="http://www.w3.org/2000/svg" viewBox="0 0 512 512"><defs><style>.a{fill:#035aa7;}</style></defs><path class="a" d="M507.29,431.61V126.08a13.08,13.08,0,0,0,0-2.58,13.39,13.39,0,0,0,0-1.9l-.05-.53-.27-.46a13,13,0,0,0-1.5-2l-1.69-2.38h-2l-1.65-1.1-.25-.09a374.55,374.55,0,0,0-36-11.11V54.27A13.29,13.29,0,0,0,450.56,41h-.07a250.21,250.21,0,0,0-192,100.15A248.85,248.85,0,0,0,61.67,41,13.29,13.29,0,0,0,48.4,54.27v48.32a353.66,353.66,0,0,0-36,11.12l-.23.09-2.08,1.32H8.56l-.67.8a13.6,13.6,0,0,0-1.59,2.39l-.25.49v2a12.15,12.15,0,0,0,0,1.81,12.36,12.36,0,0,0,0,2.58V429.84a8.38,8.38,0,0,0,0,.86,12.56,12.56,0,0,0-1.25,1.38l-.84,1.06.56,1.24a13.29,13.29,0,0,0,1.12,2v1.93l3.26,2.45h10.6l.34-.11a268.51,268.51,0,0,1,231,30l.55.36h10.14l.55-.35a269.69,269.69,0,0,1,229.71-28.22l.35.11h10.39l3.46-2.69v-1.69a13.25,13.25,0,0,0,1.13-2l.15-.35,0-.38a12.82,12.82,0,0,0,0-2A12.69,12.69,0,0,0,507.29,431.61ZM486.7,135.73V412a302.52,302.52,0,0,0-174.53,7,213.18,213.18,0,0,1,143-55.24,13.28,13.28,0,0,0,13.27-13.27V130C474.48,131.73,480.6,133.64,486.7,135.73ZM442.59,67.9V337.6a247.11,247.11,0,0,0-170.22,84.24V167.68A227.88,227.88,0,0,1,442.59,67.9Zm-196.77,100V421.58a244.91,244.91,0,0,0-170-84.2V68.17A226.11,226.11,0,0,1,245.82,167.9ZM61.22,363.8h.2l.85.21h.27a212.49,212.49,0,0,1,142.35,55,301.09,301.09,0,0,0-82.75-16.22q-8.07-.44-16.11-.43A301,301,0,0,0,30.39,412V135.51c6-2.06,11.9-3.9,17.57-5.49v220.5A13.27,13.27,0,0,0,61.22,363.8Z"/><path class="a" d="M220.42,275.59a213.29,213.29,0,0,0-90.71-50.33,13.61,13.61,0,0,0-6.62,26.4,186.78,186.78,0,0,1,79.52,43.56,13.15,13.15,0,0,0,9.31,3.94h.13a13.27,13.27,0,0,0,9.47-22.57C221.17,276.24,220.81,275.91,220.42,275.59Z"/><path class="a" d="M220.64,327.21A218.68,218.68,0,0,0,130,276.88a13.64,13.64,0,0,0-6.87,26.4,192.5,192.5,0,0,1,79.75,43.56,13.19,13.19,0,0,0,9.3,3.94h.14a13.28,13.28,0,0,0,9.47-22.57A11.66,11.66,0,0,0,220.64,327.21Z"/><path class="a" d="M119.41,124a13.61,13.61,0,0,0,3.68,24.87,186.53,186.53,0,0,1,79.78,43.59l.12.11a13.27,13.27,0,0,0,17.78-19.65l-.07-.06a213.13,213.13,0,0,0-91-50.4A13.53,13.53,0,0,0,119.41,124Z"/><path class="a" d="M123.09,200.49a186.3,186.3,0,0,1,79.55,43.59l.12.1a13.19,13.19,0,0,0,8.29,2.93,14.48,14.48,0,0,0,1.47-.08,13.27,13.27,0,0,0,8-22.49l-.07-.06a212.67,212.67,0,0,0-90.77-50.4,13.61,13.61,0,0,0-6.62,26.41Z"/><path class="a" d="M305.35,297.4a13.23,13.23,0,0,0,6-1.44l.45.89,2.19-2a187.07,187.07,0,0,1,79.54-43.58,13.61,13.61,0,1,0-6.63-26.41,213.64,213.64,0,0,0-91,49.94l-.07.07a13.28,13.28,0,0,0,9.47,22.57Z"/><path class="a" d="M403.55,286.87a13.66,13.66,0,0,0-13.83-10.19v-.57l-2.84.78a218.82,218.82,0,0,0-90.71,50.59l-.07.07a13.27,13.27,0,0,0,17.78,19.65l.11-.09a192.75,192.75,0,0,1,79.79-43.61,13.65,13.65,0,0,0,9.77-16.63Z"/><path class="a" d="M303.56,195.42l.26.53,1.41,0a13.27,13.27,0,0,0,8.77-3.47,186.52,186.52,0,0,1,79.54-43.58,13.61,13.61,0,1,0-6.63-26.41A213.08,213.08,0,0,0,296,172.39a13.27,13.27,0,0,0,7.59,23Z"/><path class="a" d="M397.46,175.17a13.53,13.53,0,0,0-10.33-1.52,212.87,212.87,0,0,0-90.94,49.92,13.28,13.28,0,0,0-.9,18.75,13.4,13.4,0,0,0,7.66,4.17v.6h2.33a13.24,13.24,0,0,0,8.94-3.47,186.54,186.54,0,0,1,79.54-43.59,13.62,13.62,0,0,0,3.7-24.88Z"/></svg>