<svg xmlns="http://www.w3.org/2000/svg" viewBox="0 0 512 512"><defs><style>.a{fill:#035aa7;}</style></defs><path class="a" d="M156.22,224H102.89a16,16,0,1,1,0-32h53.33a16,16,0,1,1,0,32Z"/><path class="a" d="M412.22,224h-160a16,16,0,0,1,0-32h160a16,16,0,0,1,0,32Z"/><path class="a" d="M156.22,309.33H102.89a16,16,0,1,1,0-32h53.33a16,16,0,0,1,0,32Z"/><path class="a" d="M412.22,309.33h-160a16,16,0,1,1,0-32h160a16,16,0,0,1,0,32Z"/><path class="a" d="M156.22,394.67H102.89a16,16,0,1,1,0-32h53.33a16,16,0,0,1,0,32Z"/><path class="a" d="M412.22,394.67h-160a16,16,0,1,1,0-32h160a16,16,0,0,1,0,32Z"/><path class="a" d="M453.33,490.67H58.67A58.72,58.72,0,0,1,0,432V80A58.72,58.72,0,0,1,58.67,21.33H453.33A58.72,58.72,0,0,1,512,80V432A58.72,58.72,0,0,1,453.33,490.67ZM58.67,53.33A26.71,26.71,0,0,0,32,80V432a26.71,26.71,0,0,0,26.67,26.67H453.33A26.71,26.71,0,0,0,480,432V80a26.71,26.71,0,0,0-26.67-26.67Z"/><path class="a" d="M496,128H16a16,16,0,0,1,0-32H496a16,16,0,0,1,0,32Z"/></svg>