<svg xmlns="http://www.w3.org/2000/svg" viewBox="0 0 512 512"><defs><style>.a{fill:#035aa7;}</style></defs><path class="a" d="M394.5,34.18a17.31,17.31,0,0,0-9.68-15.56,16.83,16.83,0,0,0-18.33,2.07L213.3,142.76,394.5,324Z"/><path class="a" d="M493.19,471.47,43.65,21.94A17.28,17.28,0,0,0,19.21,46.38L128,155.21H117.86a35.12,35.12,0,0,0-34.58,34.57V328.1a34.68,34.68,0,0,0,34.58,34.58h80.23L366.49,497.2a17.62,17.62,0,0,0,10.72,3.8,20.2,20.2,0,0,0,7.61-1.73,17.32,17.32,0,0,0,9.68-15.56v-62l74.21,74.21a17.3,17.3,0,1,0,24.48-24.45Z"/></svg>