<svg xmlns="http://www.w3.org/2000/svg" viewBox="0 0 512 512"><defs><style>.a{fill:#035aa7;}</style></defs><path class="a" d="M253.66,251.32a106.75,106.75,0,1,1,42-8.12A109.2,109.2,0,0,1,253.66,251.32Zm0-178.92c-19.3,0-35.32,6.64-49,20.29s-20.3,29.67-20.3,49,6.64,35.31,20.3,49,29.67,20.29,49,20.29,35.32-6.64,49-20.29,20.29-29.68,20.29-49-6.64-35.32-20.29-49S273,72.4,253.66,72.4Z"/><path class="a" d="M345.42,488H166.58c-24.68,0-45.24-7.67-61.13-22.78-16.09-15.33-24.59-36.52-24.59-61.3,0-7.92.26-15.77.79-23.33a239.73,239.73,0,0,1,3.28-25.65,205,205,0,0,1,6.41-26.18,136.66,136.66,0,0,1,11.38-25.83,103,103,0,0,1,18.21-23.68,84.62,84.62,0,0,1,27.55-17.39,92.73,92.73,0,0,1,34.26-6.28c10.22,0,18.23,4.67,25.56,9.45,4.36,2.83,9.41,6.09,15,9.67,2.33,1.49,6.82,3.82,14.92,6.43a55.8,55.8,0,0,0,35.51,0c8.11-2.62,12.61-4.95,15-6.45,5.59-3.57,10.63-6.82,15-9.65,7.35-4.78,15.37-9.44,25.58-9.44a92.71,92.71,0,0,1,34.25,6.27,84.74,84.74,0,0,1,27.55,17.39,103.22,103.22,0,0,1,18.22,23.67,137.38,137.38,0,0,1,11.38,25.84,204.21,204.21,0,0,1,6.41,26.18,240.21,240.21,0,0,1,3.28,25.64c.53,7.53.8,15.37.8,23.33,0,24.8-8.5,46-24.59,61.31C390.66,480.33,370.09,488,345.42,488Zm-164-192a52.14,52.14,0,0,0-18.1,3.43,44.45,44.45,0,0,0-14.48,9,62.82,62.82,0,0,0-11,14.44,96.28,96.28,0,0,0-8,18.19,164.88,164.88,0,0,0-5.13,21,199.54,199.54,0,0,0-2.74,21.3c-.46,6.64-.69,13.55-.69,20.54,0,13.83,3.94,24.31,12,32s19.11,11.64,33.27,11.64H345.42c14.15,0,25-3.81,33.28-11.65s12-18.19,12-32c0-7-.23-13.93-.7-20.53h0a200.35,200.35,0,0,0-2.74-21.31,164.71,164.71,0,0,0-5.13-21,95.36,95.36,0,0,0-8-18.18,62.79,62.79,0,0,0-11-14.45,44.49,44.49,0,0,0-14.49-9,51.82,51.82,0,0,0-18.1-3.42,50.28,50.28,0,0,0-4.8,2.88c-4.43,2.89-9.58,6.21-15.3,9.86-6.33,4-14.49,7.68-24.26,10.83a96.17,96.17,0,0,1-60.37,0c-9.76-3.15-17.92-6.8-24.23-10.82-5.72-3.65-10.87-7-15.32-9.88A55.36,55.36,0,0,0,181.45,296Z"/></svg>