<svg xmlns="http://www.w3.org/2000/svg" viewBox="0 0 512 512"><defs><style>.a{fill:#035aa7;}</style></defs><path class="a" d="M256.22,512a32.34,32.34,0,0,1-17.88-5.49c-10-6.33-66.75-46.54-120.91-102.37C84,369.69,57.32,335.31,38.07,302,13.14,258.72.49,216.72.49,177.12.51,128.36,18.55,81.28,50,48,80.48,15.6,120.28-1.36,162.05.17c34.81,1.28,67.51,15.29,94,39.89C283.79,14.43,318.88.05,355,0h0c41.77.05,81,18.49,110.58,51.93s45.82,77.88,45.87,125.16c0,39.62-12.64,81.62-37.57,124.85-19.23,33.35-45.91,67.73-79.31,102.19C337.17,463.43,279.24,503,274.46,506.26h0A32.28,32.28,0,0,1,256.22,512Z"/></svg>