<svg xmlns="http://www.w3.org/2000/svg" viewBox="0 0 512 512"><defs><style>.a{fill:#035aa7;}</style></defs><path class="a" d="M216.61,0H19.69A19.7,19.7,0,0,0,0,19.69V216.62a19.7,19.7,0,0,0,19.69,19.69H216.62a19.7,19.7,0,0,0,19.69-19.69V19.69A19.7,19.7,0,0,0,216.61,0ZM196.92,196.92H39.38V39.38H196.92V196.92Z"/><path class="a" d="M492.31,0H295.38a19.7,19.7,0,0,0-19.69,19.69V216.62a19.7,19.7,0,0,0,19.69,19.69H492.31A19.7,19.7,0,0,0,512,216.62V19.69A19.7,19.7,0,0,0,492.31,0Zm-19.7,196.92H315.08V39.38H472.61Z"/><path class="a" d="M216.61,275.69H19.69A19.7,19.7,0,0,0,0,295.38V492.31A19.7,19.7,0,0,0,19.69,512H216.62a19.7,19.7,0,0,0,19.69-19.69V295.38A19.7,19.7,0,0,0,216.61,275.69ZM196.92,472.61H39.38V315.08H196.92V472.61Z"/><path class="a" d="M492.31,374.15H413.54V295.38a19.7,19.7,0,0,0-39.39,0v78.77H295.38a19.7,19.7,0,0,0,0,39.39h78.77v78.77a19.7,19.7,0,0,0,39.39,0V413.54h78.77a19.7,19.7,0,0,0,0-39.39Z"/></svg>